<?xml version="1.0" encoding="UTF-8"?> <svg xmlns="http://www.w3.org/2000/svg" width="604" height="221" viewBox="0 0 604 221" fill="none"><path fill-rule="evenodd" clip-rule="evenodd" d="M16 110.098C16 58.1288 58.0487 16 109.918 16C161.787 16 203.836 58.1288 203.836 110.098C203.836 162.068 161.807 204.217 109.918 204.217C58.0487 204.217 16 162.088 16 110.098Z" fill="black"></path><path fill-rule="evenodd" clip-rule="evenodd" d="M135.011 161.807L151.285 161.868C156.597 161.868 160.926 157.518 160.926 152.207C160.926 146.876 156.597 142.547 151.305 142.547L135.372 142.487C131.664 142.487 128.758 139.5 128.758 135.672V100.338L140.182 100.318C142.727 100.318 145.172 99.2956 146.976 97.4918C148.8 95.688 149.822 93.2228 149.802 90.6374C149.782 85.3061 145.473 80.997 140.142 80.997L128.758 81.0171V62.6985C128.758 57.3672 124.429 53.0381 119.117 53.0381C113.806 53.0381 109.477 57.3672 109.477 62.6985V81.0371L91.6195 81.0572C77.3294 81.0572 65.6848 92.7017 65.6848 107.032L65.7049 151.887C65.7049 157.218 70.0139 161.547 75.3452 161.547C80.6764 161.527 84.9855 157.218 85.0056 151.887L85.0256 106.471C85.6669 102.843 88.3125 100.398 91.6195 100.398L109.457 100.378V135.532C109.457 149.782 120.901 161.567 135.011 161.807Z" fill="white"></path><path d="M287.209 149.552H253.017C250.812 149.552 249.008 147.748 249.008 145.543V62.7487C249.008 58.5598 245.601 55.1126 241.412 55.0925C236.602 55.0725 233.836 57.8583 233.836 62.7086V154.683C233.836 160.214 238.326 164.704 243.857 164.704H287.169C291.357 164.704 294.765 161.296 294.765 157.128C294.745 152.318 291.999 149.552 287.209 149.552Z" fill="black"></path><path d="M364.652 95.6982C357.016 88.2224 347.616 84.4344 336.733 84.4344C325.89 84.4344 316.51 88.2224 308.894 95.6982C300.857 103.495 296.769 112.814 296.769 123.357V124.479C296.769 135.402 300.697 144.902 308.413 152.718C316.13 160.515 325.65 164.463 336.733 164.463C343.147 164.463 349.38 162.92 355.272 159.853C358.138 158.35 360.784 156.526 363.149 154.462C365.554 152.358 367.698 149.993 369.502 147.407C370.424 146.084 370.885 144.661 370.885 143.178V142.577C370.885 142.176 370.785 141.835 370.665 141.535C370.244 139.491 369.121 137.907 367.358 136.825C366.095 136.043 364.692 135.642 363.289 135.642H362.467L362.046 135.683C359.862 136.164 358.198 137.166 357.056 138.729C355.934 140.392 354.571 141.916 353.007 143.258C351.524 144.541 349.881 145.664 348.097 146.586L347.516 146.886C345.872 147.628 344.209 148.229 342.565 148.65C340.621 149.151 338.617 149.411 336.573 149.411C329.919 149.411 324.267 147.107 319.336 142.397C316.931 139.992 315.408 138.048 314.406 136.103C313.544 134.44 312.903 132.776 312.462 131.033H369.101C372.709 131.033 375.254 129.129 376.236 125.661C376.337 125.401 376.557 124.679 376.597 123.817C376.597 123.657 376.617 123.417 376.617 123.236C376.557 118.206 375.415 112.935 373.41 108.365C371.306 103.575 368.36 99.3259 364.652 95.6982ZM360.263 116.482H312.883C314.085 112.975 316.049 109.828 318.735 107.102L319.617 106.321C324.648 101.851 330.179 99.6666 336.493 99.6666C339.659 99.6666 342.746 100.228 345.632 101.33C348.819 102.533 351.384 104.096 353.488 106.08C355.052 107.523 356.515 109.387 358.058 111.912C358.96 113.375 359.702 114.899 360.263 116.482Z" fill="black"></path><path d="M424.498 84.6348C413.475 84.6348 403.975 88.5831 396.259 96.3795C388.522 104.176 384.614 113.656 384.614 124.539C384.614 135.422 388.543 144.882 396.279 152.698C404.055 160.475 413.555 164.423 424.518 164.423C428.447 164.423 432.014 163.942 435.421 162.94C438.849 161.918 442.156 160.435 445.302 158.47C446.585 157.649 447.808 156.787 449.01 155.845C449.15 155.725 449.311 155.604 449.451 155.504V157.007C449.451 159.012 450.112 160.795 451.415 162.299L451.616 162.499C453.119 163.802 454.923 164.463 456.987 164.463C458.991 164.463 460.755 163.722 462.218 162.258C463.12 161.357 463.741 160.254 464.142 158.791C464.302 158.23 464.362 157.749 464.423 157.388C464.463 157.108 464.503 156.306 464.503 156.226V124.559C464.503 113.676 460.574 104.216 452.858 96.4196C445.182 88.5831 435.642 84.6348 424.498 84.6348ZM449.571 124.599C449.571 131.514 447.166 137.286 442.256 142.216C437.466 147.066 431.493 149.532 424.518 149.532C417.544 149.532 411.772 147.147 406.841 142.216C401.911 137.206 399.506 131.433 399.506 124.519C399.506 117.664 401.971 111.692 406.841 106.761C411.571 101.951 417.524 99.5262 424.518 99.5262C431.493 99.5262 437.466 101.971 442.256 106.761C447.166 111.832 449.571 117.664 449.571 124.599Z" fill="black"></path><path d="M577.361 94.4355C570.947 88.0219 563.171 84.7551 554.252 84.715H554.112C545.253 84.7551 537.557 87.9618 531.244 94.2751C524.75 100.709 521.443 108.405 521.443 117.163V157.047C521.443 159.272 522.144 161.016 523.567 162.218C524.269 163.06 525.091 163.661 525.992 164.002C526.754 164.283 527.616 164.423 528.678 164.423C530.843 164.423 532.646 163.681 534.049 162.238C535.052 161.337 536.214 159.733 536.214 157.047V117.604C536.214 112.554 537.978 108.245 541.445 104.777C545.053 101.25 549.201 99.5262 554.152 99.5262C559.102 99.5262 563.271 101.25 566.859 104.777C570.426 108.285 572.15 112.474 572.15 117.604V157.047C572.15 158.831 572.831 160.555 574.114 162.038C575.457 163.601 577.361 164.423 579.606 164.423C581.87 164.423 583.674 163.681 584.997 162.218C585.759 161.517 586.3 160.755 586.62 159.894C586.901 159.132 587.041 158.23 587.041 157.047V117.604C587.021 108.625 583.774 100.829 577.361 94.4355Z" fill="black"></path><path d="M512.243 84.8553C512.223 84.8553 512.223 84.8353 512.203 84.8353C510.74 84.4144 506.832 84.3542 506.832 84.3542C497.953 84.3542 490.077 87.6011 483.443 93.9946C476.849 100.528 473.482 108.345 473.482 117.264V157.589C473.482 158.611 473.702 159.633 474.103 160.535C474.464 161.377 474.945 162.138 475.566 162.86C476.929 164.343 478.813 165.125 480.998 165.125C483.363 165.125 485.026 163.982 486.088 163.12L486.229 162.98C487.652 161.577 488.353 159.773 488.353 157.669V117.825C488.353 112.654 490.137 108.365 493.805 104.677C497.372 101.11 501.621 99.3659 506.792 99.3659C507.213 99.3659 508.255 99.426 509.317 99.5663C509.357 99.5663 509.397 99.5663 509.438 99.5864C509.718 99.6265 509.999 99.6665 510.259 99.7066C510.259 99.7066 510.259 99.6665 510.279 99.6665C510.48 99.6866 510.68 99.7267 510.881 99.7267C515.029 99.7267 518.416 96.3596 518.416 92.1908C518.436 88.523 515.751 85.4766 512.243 84.8553Z" fill="black"></path></svg> 